<svg xmlns="http://www.w3.org/2000/svg" viewBox="0 0 360 1200" preserveAspectRatio="none">
<defs>
  <mask id="paintMask">
    <rect width="360" height="1200" fill="black"/>
    <polygon points="0,0 129.0,0 139.5,40 155.4,80 154.7,120 150.0,160 142.6,200 141.7,240 160.4,280 150.7,320 167.3,360 155.1,400 130.0,440 115.2,480 108.6,520 111.4,560 116.5,600 129.7,640 113.5,680 125.5,720 108.5,760 118.1,800 120.4,840 127.1,880 148.0,920 161.3,960 153.2,1000 141.7,1040 142.9,1080 151.2,1120 153.4,1160 158.0,1200 0,1200" fill="white"/>

<polygon points="138,326 192,326 192,331 138,331" fill="white" opacity="0.41"/>
<polygon points="134,206 200,200 200,208 134,214" fill="white" opacity="0.51"/>
<polygon points="128,948 211,946 211,952 128,954" fill="white" opacity="0.40"/>
<polygon points="94,748 182,745 182,748 94,751" fill="white" opacity="0.38"/>
<polygon points="97,600 259,600 259,604 97,604" fill="white" opacity="0.87"/>
<polygon points="94,577 169,576 169,581 94,582" fill="white" opacity="0.45"/>
<polygon points="120,437 218,440 218,450 120,447" fill="white" opacity="0.74"/>
<polygon points="147,358 230,356 230,360 147,362" fill="white" opacity="0.63"/>
<polygon points="137,1148 192,1142 192,1154 137,1160" fill="white" opacity="0.81"/>
<polygon points="105,477 225,472 225,477 105,482" fill="white" opacity="0.59"/>
<polygon points="120,440 258,444 258,454 120,450" fill="white" opacity="0.54"/>
<polygon points="129,1030 199,1028 199,1038 129,1040" fill="white" opacity="0.63"/>
<polygon points="138,293 195,296 195,304 138,301" fill="white" opacity="0.51"/>
<polygon points="116,885 250,881 250,886 116,890" fill="white" opacity="0.48"/>
<polygon points="129,1051 208,1047 208,1050 129,1054" fill="white" opacity="0.87"/>
<polygon points="144,335 259,335 259,343 144,343" fill="white" opacity="0.39"/>
<polygon points="137,966 219,970 219,982 137,978" fill="white" opacity="0.92"/>
<polygon points="131,242 231,246 231,258 131,254" fill="white" opacity="0.51"/>
<polygon points="105,704 149,709 149,713 105,708" fill="white" opacity="0.62"/>
<polygon points="94,547 250,542 250,546 94,551" fill="white" opacity="0.65"/>
<polygon points="104,619 227,618 227,626 104,627" fill="white" opacity="0.47"/>
<polygon points="138,338 222,341 222,349 138,346" fill="white" opacity="0.90"/>
<polygon points="113,671 191,677 191,682 113,676" fill="white" opacity="0.88"/>
<polygon points="111,637 167,632 167,640 111,645" fill="white" opacity="0.92"/>
<polygon points="134,1003 253,999 253,1007 134,1011" fill="white" opacity="0.81"/>
<polygon points="144,981 291,984 291,989 144,986" fill="white" opacity="0.67"/>
<polygon points="104,874 257,879 257,887 104,882" fill="white" opacity="0.80"/>
<polygon points="131,419 235,420 235,430 131,429" fill="white" opacity="0.74"/>
<polygon points="136,1067 211,1061 211,1065 136,1071" fill="white" opacity="0.39"/>
<polygon points="138,1142 193,1146 193,1149 138,1145" fill="white" opacity="0.39"/>
<polygon points="134,128 189,123 189,126 134,131" fill="white" opacity="0.87"/>
<polygon points="130,1060 186,1056 186,1062 130,1066" fill="white" opacity="0.48"/>
<polygon points="144,1177 231,1177 231,1189 144,1189" fill="white" opacity="0.63"/>
<polygon points="133,397 175,397 175,403 133,403" fill="white" opacity="0.56"/>
<polygon points="144,964 271,968 271,978 144,974" fill="white" opacity="0.74"/>
<polygon points="128,209 166,204 166,209 128,214" fill="white" opacity="0.83"/>
<polygon points="99,517 151,513 151,519 99,523" fill="white" opacity="0.43"/>
<polygon points="94,578 170,580 170,583 94,581" fill="white" opacity="0.62"/>
<polygon points="131,208 167,203 167,215 131,220" fill="white" opacity="0.36"/>
<polygon points="105,492 155,492 155,498 105,498" fill="white" opacity="0.48"/>
<polygon points="148,128 198,134 198,140 148,134" fill="white" opacity="0.51"/>
<polygon points="129,939 189,941 189,951 129,949" fill="white" opacity="0.95"/>
<polygon points="142,1004 191,1007 191,1011 142,1008" fill="white" opacity="0.93"/>
<polygon points="134,1118 172,1119 172,1122 134,1121" fill="white" opacity="0.38"/>
<polygon points="135,1037 274,1039 274,1043 135,1041" fill="white" opacity="0.38"/>
<polygon points="141,172 266,169 266,177 141,180" fill="white" opacity="0.39"/>
<polygon points="92,834 137,837 137,845 92,842" fill="white" opacity="0.50"/>
<polygon points="143,89 235,91 235,101 143,99" fill="white" opacity="0.70"/>
<polygon points="112,655 255,652 255,662 112,665" fill="white" opacity="0.78"/>
<polygon points="96,551 166,550 166,560 96,561" fill="white" opacity="0.53"/>
<polygon points="135,156 162,151 162,159 135,164" fill="white" opacity="0.95"/>
<polygon points="134,1109 188,1104 188,1108 134,1113" fill="white" opacity="0.91"/>
<polygon points="107,508 174,513 174,519 107,514" fill="white" opacity="0.85"/>
<polygon points="101,627 192,631 192,641 101,637" fill="white" opacity="0.67"/>
<polygon points="131,1143 192,1139 192,1142 131,1146" fill="white" opacity="0.91"/>
<polygon points="105,549 150,547 150,557 105,559" fill="white" opacity="0.68"/>
<polygon points="97,585 188,589 188,594 97,590" fill="white" opacity="0.47"/>
<polygon points="102,548 182,552 182,564 102,560" fill="white" opacity="0.38"/>
<polygon points="119,875 240,871 240,874 119,878" fill="white" opacity="0.55"/>
<polygon points="99,544 149,546 149,554 99,552" fill="white" opacity="0.77"/>
<polygon points="122,27 167,29 167,39 122,37" fill="white" opacity="0.89"/>
<polygon points="139,81 261,77 261,85 139,89" fill="white" opacity="0.44"/>
<polygon points="135,93 197,87 197,99 135,105" fill="white" opacity="0.93"/>
<polygon points="103,740 157,746 157,756 103,750" fill="white" opacity="0.41"/>
<polygon points="137,1154 268,1151 268,1159 137,1162" fill="white" opacity="0.80"/>
<polygon points="138,340 296,334 296,338 138,344" fill="white" opacity="0.88"/>
<polygon points="143,375 250,381 250,393 143,387" fill="white" opacity="0.91"/>
<polygon points="96,516 154,510 154,520 96,526" fill="white" opacity="0.41"/>
<polygon points="132,971 187,977 187,983 132,977" fill="white" opacity="0.56"/>
<polygon points="108,474 163,472 163,476 108,478" fill="white" opacity="0.59"/>
<polygon points="141,150 295,150 295,155 141,155" fill="white" opacity="0.73"/>
<polygon points="138,1106 202,1104 202,1107 138,1109" fill="white" opacity="0.88"/>
<polygon points="144,373 232,373 232,376 144,376" fill="white" opacity="0.42"/>
<polygon points="105,715 211,717 211,723 105,721" fill="white" opacity="0.71"/>
<polygon points="130,244 199,249 199,253 130,248" fill="white" opacity="0.50"/>
<polygon points="114,901 137,906 137,918 114,913" fill="white" opacity="0.67"/>
<polygon points="138,411 205,414 205,424 138,421" fill="white" opacity="0.90"/>
<polygon points="114,650 211,652 211,662 114,660" fill="white" opacity="0.89"/>
<polygon points="109,641 207,643 207,649 109,647" fill="white" opacity="0.77"/>
<polygon points="132,268 184,264 184,270 132,274" fill="white" opacity="0.76"/>
<polygon points="138,1173 199,1171 199,1183 138,1185" fill="white" opacity="0.35"/>
<polygon points="121,438 194,439 194,447 121,446" fill="white" opacity="0.74"/>
<polygon points="129,912 203,918 203,926 129,920" fill="white" opacity="0.63"/>
<polygon points="146,355 243,358 243,366 146,363" fill="white" opacity="0.75"/>
<polygon points="101,694 143,691 143,695 101,698" fill="white" opacity="0.75"/>
<polygon points="138,415 186,418 186,422 138,419" fill="white" opacity="0.94"/>
<polygon points="130,157 205,162 205,172 130,167" fill="white" opacity="0.70"/>
<polygon points="98,794 177,788 177,792 98,798" fill="white" opacity="0.74"/>
<polygon points="136,226 249,231 249,235 136,230" fill="white" opacity="0.83"/>
<polygon points="131,1068 207,1063 207,1067 131,1072" fill="white" opacity="0.90"/>
<polygon points="133,942 180,944 180,954 133,952" fill="white" opacity="0.67"/>
<polygon points="101,657 249,662 249,668 101,663" fill="white" opacity="0.72"/>
<polygon points="128,1041 200,1037 200,1045 128,1049" fill="white" opacity="0.62"/>
<polygon points="134,980 209,978 209,982 134,984" fill="white" opacity="0.85"/>
<polygon points="136,1075 214,1080 214,1085 136,1080" fill="white" opacity="0.61"/>
<polygon points="104,593 160,588 160,593 104,598" fill="white" opacity="0.89"/>
<polygon points="140,291 189,288 189,298 140,301" fill="white" opacity="0.44"/>
<polygon points="141,139 212,133 212,141 141,147" fill="white" opacity="0.63"/>
<polygon points="127,431 249,436 249,448 127,443" fill="white" opacity="0.70"/>
<polygon points="130,48 256,42 256,50 130,56" fill="white" opacity="0.58"/>
<polygon points="102,728 163,728 163,740 102,740" fill="white" opacity="0.88"/>
<polygon points="130,1110 238,1107 238,1119 130,1122" fill="white" opacity="0.71"/>
<polygon points="139,1007 194,1006 194,1012 139,1013" fill="white" opacity="0.37"/>
<polygon points="94,836 199,839 199,845 94,842" fill="white" opacity="0.90"/>
<polygon points="132,1101 164,1095 164,1103 132,1109" fill="white" opacity="0.69"/>
<polygon points="139,179 234,173 234,185 139,191" fill="white" opacity="0.63"/>
<polygon points="103,540 171,546 171,552 103,546" fill="white" opacity="0.55"/>
<polygon points="88,784 147,779 147,785 88,790" fill="white" opacity="0.50"/>
<polygon points="137,971 167,970 167,973 137,974" fill="white" opacity="0.95"/>
<polygon points="108,467 204,461 204,471 108,477" fill="white" opacity="0.37"/>
<polygon points="108,514 161,510 161,518 108,522" fill="white" opacity="0.44"/>
<polygon points="136,977 234,975 234,979 136,981" fill="white" opacity="0.63"/>
<polygon points="94,763 144,769 144,779 94,773" fill="white" opacity="0.78"/>
<polygon points="149,343 302,341 302,349 149,351" fill="white" opacity="0.37"/>
<polygon points="143,1187 242,1184 242,1190 143,1193" fill="white" opacity="0.91"/>
<polygon points="130,163 219,168 219,178 130,173" fill="white" opacity="0.50"/>
<polygon points="104,625 229,628 229,640 104,637" fill="white" opacity="0.42"/>
<polygon points="143,92 208,94 208,104 143,102" fill="white" opacity="0.57"/>
<polygon points="105,706 133,706 133,718 105,718" fill="white" opacity="0.64"/>
<polygon points="91,749 185,749 185,755 91,755" fill="white" opacity="0.77"/>
<polygon points="139,368 246,370 246,375 139,373" fill="white" opacity="0.72"/>
<polygon points="133,998 209,997 209,1007 133,1008" fill="white" opacity="0.71"/>
<polygon points="108,510 229,507 229,512 108,515" fill="white" opacity="0.88"/>
<polygon points="134,959 221,960 221,966 134,965" fill="white" opacity="0.55"/>
<polygon points="111,673 162,672 162,677 111,678" fill="white" opacity="0.83"/>
<polygon points="97,580 228,582 228,587 97,585" fill="white" opacity="0.68"/>
<polygon points="132,399 173,405 173,411 132,405" fill="white" opacity="0.64"/>
<polygon points="100,500 201,506 201,516 100,510" fill="white" opacity="0.64"/>
<polygon points="138,43 180,41 180,47 138,49" fill="white" opacity="0.77"/>
<polygon points="95,763 172,768 172,773 95,768" fill="white" opacity="0.61"/>
<polygon points="129,1135 193,1133 193,1139 129,1141" fill="white" opacity="0.51"/>
<polygon points="113,480 158,482 158,487 113,485" fill="white" opacity="0.42"/>
<polygon points="135,387 187,390 187,396 135,393" fill="white" opacity="0.52"/>
<polygon points="137,1082 227,1079 227,1091 137,1094" fill="white" opacity="0.47"/>
<polygon points="105,747 156,745 156,755 105,757" fill="white" opacity="0.67"/>
<polygon points="141,101 298,97 298,102 141,106" fill="white" opacity="0.77"/>
<polygon points="145,1013 188,1014 188,1022 145,1021" fill="white" opacity="0.52"/>
<polygon points="131,910 196,911 196,916 131,915" fill="white" opacity="0.91"/>
<polygon points="133,241 253,245 253,251 133,247" fill="white" opacity="0.39"/>
<polygon points="136,117 185,112 185,120 136,125" fill="white" opacity="0.92"/>
<polygon points="96,516 141,522 141,528 96,522" fill="white" opacity="0.71"/>
<polygon points="113,470 226,468 226,474 113,476" fill="white" opacity="0.90"/>
<polygon points="114,886 176,891 176,894 114,889" fill="white" opacity="0.72"/>
<polygon points="136,211 283,215 283,225 136,221" fill="white" opacity="0.48"/>
<polygon points="140,174 189,168 189,176 140,182" fill="white" opacity="0.40"/>
<ellipse cx="243" cy="856" rx="9" ry="6" fill="white" opacity="0.51"/>
<ellipse cx="223" cy="86" rx="4" ry="3" fill="white" opacity="0.64"/>
<ellipse cx="176" cy="949" rx="9" ry="2" fill="white" opacity="0.76"/>
<ellipse cx="259" cy="425" rx="2" ry="6" fill="white" opacity="0.37"/>
<ellipse cx="234" cy="325" rx="3" ry="1" fill="white" opacity="0.28"/>
<ellipse cx="276" cy="649" rx="4" ry="4" fill="white" opacity="0.32"/>
<ellipse cx="233" cy="642" rx="4" ry="6" fill="white" opacity="0.55"/>
<ellipse cx="169" cy="916" rx="7" ry="1" fill="white" opacity="0.74"/>
<ellipse cx="194" cy="680" rx="2" ry="1" fill="white" opacity="0.38"/>
<ellipse cx="229" cy="62" rx="7" ry="1" fill="white" opacity="0.67"/>
<ellipse cx="284" cy="378" rx="7" ry="4" fill="white" opacity="0.75"/>
<ellipse cx="272" cy="391" rx="9" ry="4" fill="white" opacity="0.78"/>
<ellipse cx="251" cy="982" rx="5" ry="3" fill="white" opacity="0.43"/>
<ellipse cx="196" cy="234" rx="4" ry="4" fill="white" opacity="0.63"/>
<ellipse cx="229" cy="610" rx="7" ry="1" fill="white" opacity="0.50"/>
<ellipse cx="195" cy="664" rx="4" ry="1" fill="white" opacity="0.78"/>
<ellipse cx="257" cy="847" rx="2" ry="6" fill="white" opacity="0.50"/>
<ellipse cx="211" cy="131" rx="7" ry="3" fill="white" opacity="0.59"/>
<ellipse cx="271" cy="1040" rx="2" ry="2" fill="white" opacity="0.40"/>
<ellipse cx="234" cy="288" rx="5" ry="4" fill="white" opacity="0.32"/>
<ellipse cx="165" cy="510" rx="4" ry="6" fill="white" opacity="0.26"/>
<ellipse cx="151" cy="855" rx="3" ry="1" fill="white" opacity="0.50"/>
<ellipse cx="196" cy="260" rx="5" ry="3" fill="white" opacity="0.53"/>
<ellipse cx="230" cy="579" rx="5" ry="4" fill="white" opacity="0.38"/>
<ellipse cx="195" cy="1148" rx="5" ry="2" fill="white" opacity="0.76"/>
<ellipse cx="190" cy="1060" rx="2" ry="3" fill="white" opacity="0.67"/>
<ellipse cx="220" cy="869" rx="7" ry="3" fill="white" opacity="0.70"/>
<ellipse cx="202" cy="599" rx="7" ry="6" fill="white" opacity="0.80"/>
<ellipse cx="198" cy="1022" rx="5" ry="6" fill="white" opacity="0.52"/>
<ellipse cx="269" cy="700" rx="7" ry="4" fill="white" opacity="0.50"/>
<ellipse cx="178" cy="679" rx="9" ry="2" fill="white" opacity="0.56"/>
<ellipse cx="232" cy="498" rx="2" ry="3" fill="white" opacity="0.66"/>
<ellipse cx="216" cy="800" rx="9" ry="2" fill="white" opacity="0.52"/>
<ellipse cx="197" cy="95" rx="7" ry="6" fill="white" opacity="0.43"/>
<ellipse cx="267" cy="225" rx="2" ry="6" fill="white" opacity="0.75"/>
<ellipse cx="195" cy="51" rx="5" ry="2" fill="white" opacity="0.29"/>
<ellipse cx="208" cy="562" rx="7" ry="4" fill="white" opacity="0.61"/>
<ellipse cx="265" cy="692" rx="5" ry="3" fill="white" opacity="0.59"/>
<ellipse cx="298" cy="1019" rx="2" ry="6" fill="white" opacity="0.29"/>
<ellipse cx="185" cy="608" rx="9" ry="1" fill="white" opacity="0.49"/>
<ellipse cx="179" cy="221" rx="5" ry="2" fill="white" opacity="0.63"/>
<ellipse cx="175" cy="79" rx="4" ry="1" fill="white" opacity="0.41"/>
<ellipse cx="227" cy="787" rx="3" ry="2" fill="white" opacity="0.54"/>
<ellipse cx="209" cy="1179" rx="3" ry="2" fill="white" opacity="0.29"/>
<ellipse cx="179" cy="803" rx="5" ry="6" fill="white" opacity="0.33"/>
<ellipse cx="225" cy="964" rx="5" ry="3" fill="white" opacity="0.62"/>
<ellipse cx="234" cy="972" rx="9" ry="6" fill="white" opacity="0.34"/>
<ellipse cx="240" cy="924" rx="7" ry="3" fill="white" opacity="0.60"/>
<ellipse cx="203" cy="888" rx="5" ry="3" fill="white" opacity="0.36"/>
<ellipse cx="241" cy="807" rx="2" ry="2" fill="white" opacity="0.46"/>
<ellipse cx="267" cy="755" rx="4" ry="3" fill="white" opacity="0.26"/>
<ellipse cx="192" cy="830" rx="2" ry="6" fill="white" opacity="0.73"/>
<ellipse cx="291" cy="120" rx="4" ry="2" fill="white" opacity="0.58"/>
<ellipse cx="178" cy="741" rx="9" ry="2" fill="white" opacity="0.59"/>
<ellipse cx="187" cy="300" rx="9" ry="1" fill="white" opacity="0.42"/>
<ellipse cx="159" cy="922" rx="7" ry="3" fill="white" opacity="0.65"/>
<ellipse cx="230" cy="204" rx="4" ry="4" fill="white" opacity="0.35"/>
<ellipse cx="299" cy="290" rx="4" ry="6" fill="white" opacity="0.53"/>
<ellipse cx="165" cy="578" rx="4" ry="4" fill="white" opacity="0.78"/>
<ellipse cx="215" cy="624" rx="2" ry="4" fill="white" opacity="0.78"/>
<ellipse cx="221" cy="308" rx="9" ry="4" fill="white" opacity="0.78"/>
<ellipse cx="253" cy="1161" rx="2" ry="4" fill="white" opacity="0.26"/>
<ellipse cx="186" cy="1118" rx="5" ry="3" fill="white" opacity="0.62"/>
<ellipse cx="219" cy="556" rx="9" ry="3" fill="white" opacity="0.31"/>
<ellipse cx="247" cy="498" rx="2" ry="6" fill="white" opacity="0.74"/>
<ellipse cx="244" cy="1169" rx="7" ry="2" fill="white" opacity="0.61"/>
<ellipse cx="238" cy="970" rx="9" ry="4" fill="white" opacity="0.31"/>
<ellipse cx="174" cy="112" rx="4" ry="4" fill="white" opacity="0.31"/>
<ellipse cx="263" cy="500" rx="3" ry="4" fill="white" opacity="0.50"/>
<ellipse cx="262" cy="1126" rx="7" ry="2" fill="white" opacity="0.74"/>
<ellipse cx="279" cy="222" rx="7" ry="4" fill="white" opacity="0.77"/>
<ellipse cx="133" cy="592" rx="9" ry="3" fill="white" opacity="0.37"/>
<ellipse cx="213" cy="930" rx="4" ry="1" fill="white" opacity="0.79"/>
<ellipse cx="257" cy="772" rx="9" ry="3" fill="white" opacity="0.28"/>
<ellipse cx="172" cy="585" rx="2" ry="4" fill="white" opacity="0.30"/>
<ellipse cx="145" cy="454" rx="2" ry="3" fill="white" opacity="0.38"/>
<ellipse cx="303" cy="277" rx="3" ry="1" fill="white" opacity="0.71"/>
<ellipse cx="212" cy="1155" rx="7" ry="2" fill="white" opacity="0.70"/>
<ellipse cx="211" cy="497" rx="3" ry="6" fill="white" opacity="0.25"/>
<ellipse cx="198" cy="316" rx="7" ry="3" fill="white" opacity="0.69"/>
<ellipse cx="162" cy="245" rx="3" ry="1" fill="white" opacity="0.45"/>
<ellipse cx="207" cy="507" rx="2" ry="2" fill="white" opacity="0.40"/>
<ellipse cx="267" cy="279" rx="7" ry="1" fill="white" opacity="0.66"/>
<ellipse cx="276" cy="995" rx="4" ry="6" fill="white" opacity="0.58"/>
<ellipse cx="285" cy="945" rx="3" ry="6" fill="white" opacity="0.27"/>
<ellipse cx="231" cy="1087" rx="5" ry="1" fill="white" opacity="0.28"/>
<ellipse cx="264" cy="1000" rx="5" ry="1" fill="white" opacity="0.52"/>
<ellipse cx="171" cy="928" rx="2" ry="3" fill="white" opacity="0.58"/>
<ellipse cx="192" cy="154" rx="4" ry="6" fill="white" opacity="0.60"/>
<ellipse cx="240" cy="1143" rx="5" ry="6" fill="white" opacity="0.54"/>
<ellipse cx="287" cy="949" rx="7" ry="4" fill="white" opacity="0.30"/>
<ellipse cx="297" cy="254" rx="9" ry="2" fill="white" opacity="0.49"/>
<ellipse cx="235" cy="487" rx="4" ry="4" fill="white" opacity="0.47"/>
<ellipse cx="235" cy="214" rx="5" ry="3" fill="white" opacity="0.62"/>
<ellipse cx="156" cy="786" rx="9" ry="4" fill="white" opacity="0.29"/>
<ellipse cx="179" cy="194" rx="5" ry="1" fill="white" opacity="0.66"/>
<ellipse cx="150" cy="783" rx="7" ry="1" fill="white" opacity="0.57"/>
<ellipse cx="305" cy="1170" rx="4" ry="1" fill="white" opacity="0.48"/>
<ellipse cx="152" cy="886" rx="4" ry="6" fill="white" opacity="0.42"/>
<ellipse cx="302" cy="232" rx="7" ry="2" fill="white" opacity="0.34"/>
<ellipse cx="218" cy="1007" rx="2" ry="3" fill="white" opacity="0.71"/>
<ellipse cx="147" cy="772" rx="4" ry="6" fill="white" opacity="0.37"/>
<ellipse cx="286" cy="898" rx="7" ry="6" fill="white" opacity="0.62"/>
<ellipse cx="166" cy="1160" rx="7" ry="3" fill="white" opacity="0.27"/>
<ellipse cx="203" cy="579" rx="4" ry="3" fill="white" opacity="0.25"/>
<ellipse cx="308" cy="313" rx="9" ry="4" fill="white" opacity="0.29"/>
<ellipse cx="187" cy="82" rx="9" ry="6" fill="white" opacity="0.37"/>
<ellipse cx="252" cy="879" rx="4" ry="2" fill="white" opacity="0.45"/>
<ellipse cx="275" cy="684" rx="7" ry="1" fill="white" opacity="0.74"/>
<ellipse cx="206" cy="338" rx="7" ry="1" fill="white" opacity="0.62"/>
<ellipse cx="236" cy="577" rx="9" ry="4" fill="white" opacity="0.52"/>
<ellipse cx="258" cy="925" rx="4" ry="2" fill="white" opacity="0.67"/>
<ellipse cx="244" cy="253" rx="5" ry="1" fill="white" opacity="0.41"/>
<ellipse cx="295" cy="1016" rx="9" ry="3" fill="white" opacity="0.27"/>
<ellipse cx="135" cy="829" rx="2" ry="2" fill="white" opacity="0.42"/>
<ellipse cx="176" cy="452" rx="4" ry="3" fill="white" opacity="0.43"/>
<ellipse cx="282" cy="35" rx="9" ry="4" fill="white" opacity="0.35"/>
<ellipse cx="253" cy="798" rx="9" ry="2" fill="white" opacity="0.53"/>
<ellipse cx="139" cy="745" rx="5" ry="1" fill="white" opacity="0.49"/>
<ellipse cx="179" cy="961" rx="4" ry="6" fill="white" opacity="0.49"/>
<ellipse cx="232" cy="848" rx="4" ry="1" fill="white" opacity="0.47"/>
<ellipse cx="173" cy="685" rx="7" ry="4" fill="white" opacity="0.71"/>
<ellipse cx="141" cy="761" rx="5" ry="1" fill="white" opacity="0.38"/>
<ellipse cx="258" cy="840" rx="2" ry="4" fill="white" opacity="0.73"/>
<ellipse cx="182" cy="715" rx="4" ry="2" fill="white" opacity="0.29"/>
<ellipse cx="291" cy="253" rx="7" ry="2" fill="white" opacity="0.75"/>
<ellipse cx="212" cy="735" rx="9" ry="2" fill="white" opacity="0.38"/>
<ellipse cx="230" cy="319" rx="3" ry="2" fill="white" opacity="0.58"/>
<ellipse cx="203" cy="174" rx="9" ry="4" fill="white" opacity="0.51"/>
<ellipse cx="276" cy="1174" rx="9" ry="6" fill="white" opacity="0.60"/>
<ellipse cx="210" cy="681" rx="3" ry="4" fill="white" opacity="0.29"/>
<ellipse cx="229" cy="925" rx="4" ry="6" fill="white" opacity="0.28"/>
<ellipse cx="174" cy="1059" rx="4" ry="4" fill="white" opacity="0.50"/>
<ellipse cx="257" cy="136" rx="4" ry="1" fill="white" opacity="0.60"/>
<ellipse cx="284" cy="204" rx="5" ry="4" fill="white" opacity="0.57"/>
<ellipse cx="280" cy="104" rx="7" ry="2" fill="white" opacity="0.43"/>
<ellipse cx="290" cy="994" rx="3" ry="1" fill="white" opacity="0.50"/>
<ellipse cx="146" cy="723" rx="7" ry="2" fill="white" opacity="0.27"/>
<ellipse cx="261" cy="916" rx="7" ry="6" fill="white" opacity="0.59"/>
<ellipse cx="214" cy="765" rx="4" ry="4" fill="white" opacity="0.47"/>
<ellipse cx="139" cy="712" rx="9" ry="3" fill="white" opacity="0.29"/>
<ellipse cx="297" cy="213" rx="9" ry="4" fill="white" opacity="0.41"/>
<ellipse cx="251" cy="327" rx="2" ry="6" fill="white" opacity="0.61"/>
<ellipse cx="201" cy="736" rx="9" ry="4" fill="white" opacity="0.32"/>
<ellipse cx="235" cy="193" rx="7" ry="4" fill="white" opacity="0.60"/>
<ellipse cx="161" cy="692" rx="9" ry="6" fill="white" opacity="0.30"/>
<ellipse cx="269" cy="887" rx="4" ry="1" fill="white" opacity="0.45"/>
<ellipse cx="215" cy="389" rx="4" ry="4" fill="white" opacity="0.36"/>
<ellipse cx="202" cy="301" rx="2" ry="3" fill="white" opacity="0.71"/>
<ellipse cx="284" cy="227" rx="7" ry="6" fill="white" opacity="0.27"/>
<ellipse cx="160" cy="709" rx="7" ry="4" fill="white" opacity="0.33"/>
<ellipse cx="203" cy="390" rx="9" ry="4" fill="white" opacity="0.27"/>
<ellipse cx="178" cy="766" rx="5" ry="6" fill="white" opacity="0.41"/>
<ellipse cx="215" cy="939" rx="7" ry="2" fill="white" opacity="0.42"/>
<ellipse cx="211" cy="980" rx="4" ry="6" fill="white" opacity="0.79"/>
<ellipse cx="232" cy="965" rx="5" ry="6" fill="white" opacity="0.54"/>
<ellipse cx="217" cy="351" rx="7" ry="2" fill="white" opacity="0.73"/>
<ellipse cx="287" cy="126" rx="4" ry="6" fill="white" opacity="0.76"/>
<ellipse cx="186" cy="1076" rx="4" ry="1" fill="white" opacity="0.67"/>
<ellipse cx="238" cy="578" rx="7" ry="2" fill="white" opacity="0.71"/>
<ellipse cx="211" cy="207" rx="5" ry="3" fill="white" opacity="0.76"/>
<ellipse cx="146" cy="869" rx="5" ry="6" fill="white" opacity="0.46"/>
<ellipse cx="138" cy="810" rx="4" ry="2" fill="white" opacity="0.27"/>
<ellipse cx="239" cy="222" rx="3" ry="2" fill="white" opacity="0.27"/>
<ellipse cx="197" cy="987" rx="9" ry="4" fill="white" opacity="0.50"/>
<ellipse cx="173" cy="30" rx="2" ry="3" fill="white" opacity="0.37"/>
<ellipse cx="306" cy="326" rx="9" ry="6" fill="white" opacity="0.54"/>
<ellipse cx="229" cy="247" rx="3" ry="3" fill="white" opacity="0.32"/>
<ellipse cx="232" cy="508" rx="9" ry="6" fill="white" opacity="0.50"/>
<ellipse cx="283" cy="247" rx="7" ry="6" fill="white" opacity="0.26"/>
<ellipse cx="302" cy="1075" rx="3" ry="2" fill="white" opacity="0.41"/>
<ellipse cx="241" cy="23" rx="3" ry="6" fill="white" opacity="0.48"/>
<ellipse cx="289" cy="195" rx="4" ry="1" fill="white" opacity="0.77"/>
<ellipse cx="285" cy="1134" rx="7" ry="6" fill="white" opacity="0.26"/>
<ellipse cx="173" cy="982" rx="9" ry="4" fill="white" opacity="0.79"/>
<ellipse cx="126" cy="539" rx="4" ry="1" fill="white" opacity="0.44"/>
<ellipse cx="240" cy="232" rx="3" ry="1" fill="white" opacity="0.44"/>
<ellipse cx="170" cy="713" rx="9" ry="4" fill="white" opacity="0.79"/>
<ellipse cx="208" cy="1000" rx="3" ry="1" fill="white" opacity="0.64"/>
<ellipse cx="168" cy="957" rx="4" ry="2" fill="white" opacity="0.27"/>
<ellipse cx="160" cy="428" rx="4" ry="3" fill="white" opacity="0.53"/>
<ellipse cx="277" cy="1132" rx="4" ry="1" fill="white" opacity="0.66"/>
<ellipse cx="228" cy="411" rx="4" ry="1" fill="white" opacity="0.73"/>
<ellipse cx="197" cy="699" rx="2" ry="3" fill="white" opacity="0.49"/>
<ellipse cx="236" cy="839" rx="5" ry="3" fill="white" opacity="0.79"/>
<ellipse cx="286" cy="1036" rx="4" ry="6" fill="white" opacity="0.40"/>
<ellipse cx="264" cy="189" rx="2" ry="4" fill="white" opacity="0.58"/>
<ellipse cx="300" cy="389" rx="4" ry="3" fill="white" opacity="0.31"/>
<ellipse cx="204" cy="691" rx="4" ry="4" fill="white" opacity="0.58"/>
<ellipse cx="183" cy="892" rx="9" ry="4" fill="white" opacity="0.44"/>
<ellipse cx="255" cy="106" rx="7" ry="4" fill="white" opacity="0.40"/>
<ellipse cx="182" cy="137" rx="9" ry="4" fill="white" opacity="0.45"/>
<ellipse cx="173" cy="347" rx="3" ry="6" fill="white" opacity="0.62"/>
<ellipse cx="158" cy="917" rx="3" ry="1" fill="white" opacity="0.38"/>
<ellipse cx="210" cy="770" rx="5" ry="6" fill="white" opacity="0.27"/>
<ellipse cx="281" cy="334" rx="4" ry="3" fill="white" opacity="0.49"/>
<ellipse cx="303" cy="177" rx="3" ry="6" fill="white" opacity="0.45"/>
<ellipse cx="202" cy="663" rx="3" ry="1" fill="white" opacity="0.26"/>
<ellipse cx="285" cy="401" rx="7" ry="4" fill="white" opacity="0.75"/>
<ellipse cx="224" cy="261" rx="4" ry="4" fill="white" opacity="0.37"/>
<ellipse cx="252" cy="604" rx="3" ry="1" fill="white" opacity="0.32"/>
<ellipse cx="273" cy="171" rx="3" ry="4" fill="white" opacity="0.80"/>
<ellipse cx="218" cy="674" rx="9" ry="1" fill="white" opacity="0.55"/>
<ellipse cx="204" cy="614" rx="3" ry="2" fill="white" opacity="0.69"/>
<ellipse cx="213" cy="1061" rx="2" ry="2" fill="white" opacity="0.69"/>
<ellipse cx="252" cy="504" rx="2" ry="3" fill="white" opacity="0.55"/>
<ellipse cx="237" cy="775" rx="7" ry="2" fill="white" opacity="0.59"/>
<ellipse cx="171" cy="196" rx="4" ry="4" fill="white" opacity="0.80"/>
<ellipse cx="296" cy="1000" rx="5" ry="4" fill="white" opacity="0.70"/>
<ellipse cx="190" cy="171" rx="4" ry="1" fill="white" opacity="0.50"/>
<rect x="146" y="1069" width="13" height="10" rx="2" fill="black" opacity="0.80"/>
<rect x="126" y="382" width="32" height="10" rx="2" fill="black" opacity="0.95"/>
<rect x="126" y="123" width="38" height="4" rx="2" fill="black" opacity="0.62"/>
<rect x="154" y="341" width="19" height="7" rx="2" fill="black" opacity="0.97"/>
<rect x="138" y="1072" width="10" height="6" rx="2" fill="black" opacity="0.56"/>
<rect x="139" y="1138" width="13" height="6" rx="2" fill="black" opacity="0.79"/>
<rect x="166" y="201" width="15" height="4" rx="2" fill="black" opacity="0.54"/>
<rect x="80" y="701" width="6" height="3" rx="1.5" fill="black" opacity="0.48"/>
<rect x="95" y="552" width="41" height="8" rx="2" fill="black" opacity="0.79"/>
<rect x="173" y="72" width="45" height="10" rx="2" fill="black" opacity="0.61"/>
<rect x="137" y="628" width="20" height="8" rx="2" fill="black" opacity="0.61"/>
<rect x="114" y="159" width="15" height="9" rx="2" fill="black" opacity="0.68"/>
<rect x="133" y="961" width="26" height="4" rx="2" fill="black" opacity="0.62"/>
<rect x="122" y="663" width="30" height="4" rx="2" fill="black" opacity="0.87"/>
<rect x="116" y="1064" width="25" height="5" rx="2" fill="black" opacity="0.71"/>
<rect x="126" y="557" width="20" height="4" rx="2" fill="black" opacity="0.50"/>
<rect x="123" y="604" width="44" height="8" rx="2" fill="black" opacity="0.59"/>
<rect x="154" y="337" width="41" height="7" rx="2" fill="black" opacity="0.55"/>
<rect x="176" y="336" width="37" height="9" rx="2" fill="black" opacity="0.72"/>
<rect x="140" y="641" width="6" height="3" rx="1.5" fill="black" opacity="0.97"/>
<rect x="163" y="1045" width="20" height="5" rx="2" fill="black" opacity="0.77"/>
<rect x="118" y="109" width="23" height="9" rx="2" fill="black" opacity="0.78"/>
<rect x="144" y="973" width="39" height="2" rx="1.0" fill="black" opacity="0.92"/>
<rect x="105" y="892" width="21" height="7" rx="2" fill="black" opacity="0.87"/>
<rect x="71" y="759" width="30" height="2" rx="1.0" fill="black" opacity="0.76"/>
<rect x="149" y="408" width="40" height="6" rx="2" fill="black" opacity="0.49"/>
<rect x="162" y="1042" width="40" height="6" rx="2" fill="black" opacity="0.90"/>
<rect x="119" y="253" width="11" height="8" rx="2" fill="black" opacity="0.66"/>
<rect x="120" y="704" width="14" height="5" rx="2" fill="black" opacity="0.78"/>
<rect x="133" y="832" width="7" height="2" rx="1.0" fill="black" opacity="0.47"/>
<rect x="136" y="692" width="38" height="9" rx="2" fill="black" opacity="0.53"/>
<rect x="120" y="1065" width="25" height="7" rx="2" fill="black" opacity="0.54"/>
<rect x="119" y="622" width="37" height="10" rx="2" fill="black" opacity="0.74"/>
<rect x="145" y="1162" width="35" height="2" rx="1.0" fill="black" opacity="0.65"/>
<rect x="155" y="234" width="42" height="6" rx="2" fill="black" opacity="0.89"/>
<rect x="169" y="64" width="21" height="5" rx="2" fill="black" opacity="0.85"/>
<rect x="130" y="993" width="38" height="8" rx="2" fill="black" opacity="0.53"/>
<rect x="76" y="506" width="41" height="3" rx="1.5" fill="black" opacity="0.55"/>
<rect x="135" y="913" width="31" height="4" rx="2" fill="black" opacity="0.68"/>
<rect x="149" y="427" width="37" height="9" rx="2" fill="black" opacity="0.93"/>
<rect x="127" y="137" width="38" height="5" rx="2" fill="black" opacity="0.76"/>
<rect x="176" y="989" width="29" height="7" rx="2" fill="black" opacity="0.98"/>
<rect x="173" y="951" width="26" height="10" rx="2" fill="black" opacity="0.64"/>
<rect x="130" y="551" width="17" height="5" rx="2" fill="black" opacity="0.60"/>
<rect x="104" y="621" width="24" height="6" rx="2" fill="black" opacity="0.84"/>
<rect x="148" y="1011" width="35" height="7" rx="2" fill="black" opacity="0.76"/>
<rect x="106" y="570" width="12" height="10" rx="2" fill="black" opacity="0.66"/>
<rect x="110" y="818" width="14" height="6" rx="2" fill="black" opacity="0.47"/>
<rect x="149" y="171" width="33" height="6" rx="2" fill="black" opacity="0.86"/>
<rect x="115" y="448" width="39" height="6" rx="2" fill="black" opacity="0.96"/>
<rect x="86" y="566" width="11" height="5" rx="2" fill="black" opacity="0.58"/>
<rect x="129" y="1097" width="45" height="5" rx="2" fill="black" opacity="0.48"/>
<rect x="117" y="856" width="35" height="3" rx="1.5" fill="black" opacity="0.82"/>
<rect x="109" y="291" width="40" height="4" rx="2" fill="black" opacity="0.67"/>
<rect x="170" y="984" width="17" height="6" rx="2" fill="black" opacity="0.63"/>
<rect x="121" y="131" width="41" height="5" rx="2" fill="black" opacity="0.74"/>
<rect x="133" y="86" width="31" height="4" rx="2" fill="black" opacity="0.96"/>
<rect x="161" y="84" width="36" height="4" rx="2" fill="black" opacity="0.97"/>
<rect x="77" y="602" width="5" height="6" rx="2" fill="black" opacity="0.76"/>
<rect x="144" y="229" width="23" height="9" rx="2" fill="black" opacity="0.99"/>
<rect x="169" y="1122" width="36" height="4" rx="2" fill="black" opacity="0.92"/>
<rect x="142" y="968" width="17" height="3" rx="1.5" fill="black" opacity="0.63"/>
<rect x="137" y="949" width="16" height="2" rx="1.0" fill="black" opacity="0.86"/>
<rect x="99" y="614" width="16" height="8" rx="2" fill="black" opacity="0.90"/>
<rect x="144" y="1065" width="10" height="8" rx="2" fill="black" opacity="0.82"/>
<rect x="126" y="388" width="35" height="7" rx="2" fill="black" opacity="0.96"/>
<rect x="131" y="23" width="29" height="5" rx="2" fill="black" opacity="0.70"/>
<rect x="111" y="556" width="24" height="2" rx="1.0" fill="black" opacity="0.59"/>
<rect x="98" y="746" width="8" height="3" rx="1.5" fill="black" opacity="0.71"/>
<rect x="164" y="337" width="37" height="6" rx="2" fill="black" opacity="0.83"/>
<rect x="122" y="614" width="44" height="5" rx="2" fill="black" opacity="0.57"/>
<rect x="168" y="283" width="14" height="9" rx="2" fill="black" opacity="0.86"/>
<rect x="118" y="775" width="40" height="9" rx="2" fill="black" opacity="0.87"/>
<rect x="117" y="457" width="43" height="3" rx="1.5" fill="black" opacity="0.74"/>
<rect x="147" y="1091" width="9" height="3" rx="1.5" fill="black" opacity="0.48"/>
<rect x="167" y="1131" width="17" height="10" rx="2" fill="black" opacity="0.53"/>
<rect x="143" y="681" width="33" height="3" rx="1.5" fill="black" opacity="0.82"/>
<rect x="119" y="1011" width="37" height="9" rx="2" fill="black" opacity="0.89"/>
<rect x="119" y="938" width="37" height="8" rx="2" fill="black" opacity="0.70"/>
<rect x="170" y="128" width="24" height="2" rx="1.0" fill="black" opacity="0.67"/>
<rect x="122" y="16" width="42" height="3" rx="1.5" fill="black" opacity="0.47"/>
<rect x="81" y="715" width="39" height="2" rx="1.0" fill="black" opacity="0.96"/>
<rect x="168" y="151" width="7" height="6" rx="2" fill="black" opacity="0.67"/>
<rect x="161" y="287" width="28" height="8" rx="2" fill="black" opacity="0.70"/>
<rect x="112" y="783" width="10" height="10" rx="2" fill="black" opacity="0.52"/>
<rect x="87" y="722" width="16" height="10" rx="2" fill="black" opacity="0.67"/>
<rect x="133" y="270" width="5" height="2" rx="1.0" fill="black" opacity="0.99"/>
<rect x="175" y="958" width="32" height="10" rx="2" fill="black" opacity="0.66"/>
<rect x="110" y="480" width="34" height="7" rx="2" fill="black" opacity="0.54"/>
<rect x="121" y="396" width="7" height="8" rx="2" fill="black" opacity="0.79"/>
<rect x="134" y="42" width="18" height="3" rx="1.5" fill="black" opacity="0.51"/>
<rect x="168" y="78" width="43" height="2" rx="1.0" fill="black" opacity="0.58"/>
<rect x="163" y="100" width="33" height="5" rx="2" fill="black" opacity="0.75"/>
<rect x="128" y="125" width="37" height="6" rx="2" fill="black" opacity="0.58"/>
<rect x="152" y="1189" width="41" height="7" rx="2" fill="black" opacity="0.58"/>
<rect x="176" y="303" width="19" height="8" rx="2" fill="black" opacity="0.62"/>
<rect x="132" y="134" width="45" height="8" rx="2" fill="black" opacity="0.76"/>
<rect x="156" y="106" width="29" height="10" rx="2" fill="black" opacity="0.63"/>
<rect x="129" y="862" width="14" height="6" rx="2" fill="black" opacity="0.66"/>
<rect x="161" y="1111" width="20" height="5" rx="2" fill="black" opacity="0.62"/>
<rect x="169" y="305" width="8" height="10" rx="2" fill="black" opacity="0.68"/>
<rect x="145" y="863" width="13" height="8" rx="2" fill="black" opacity="0.58"/>
<rect x="139" y="426" width="10" height="9" rx="2" fill="black" opacity="0.92"/>
<rect x="170" y="199" width="17" height="2" rx="1.0" fill="black" opacity="0.60"/>
<rect x="121" y="90" width="17" height="10" rx="2" fill="black" opacity="0.57"/>
  </mask>
</defs>
<rect width="100%" height="100%" fill="#073646" mask="url(#paintMask)"/>
</svg>